<?xml version="1.0" encoding="UTF-8" standalone="no"?>
<svg
   xmlns:dc="http://purl.org/dc/elements/1.1/"
   xmlns:cc="http://creativecommons.org/ns#"
   xmlns:rdf="http://www.w3.org/1999/02/22-rdf-syntax-ns#"
   xmlns:svg="http://www.w3.org/2000/svg"
   xmlns="http://www.w3.org/2000/svg"
   xmlns:sodipodi="http://sodipodi.sourceforge.net/DTD/sodipodi-0.dtd"
   xmlns:inkscape="http://www.inkscape.org/namespaces/inkscape"
   width="48"
   height="48"
   viewBox="0 0 12.7 12.7"
   version="1.1"
   id="svg8"
   inkscape:version="1.0.1 (3bc2e813f5, 2020-09-07)"
   sodipodi:docname="formcapture-icon - kopie.svg"
   inkscape:export-filename="C:\Users\moudr\source\repos\formcapture-local\assets\formcapture-icon.png"
   inkscape:export-xdpi="334.7756"
   inkscape:export-ydpi="334.7756">
  <defs
     id="defs2">
    <inkscape:path-effect
       effect="skeletal"
       id="path-effect857"
       is_visible="true"
       lpeversion="1"
       pattern="M 0,5 C 0,2.24 2.24,0 5,0 7.76,0 10,2.24 10,5 10,7.76 7.76,10 5,10 2.24,10 0,7.76 0,5 Z"
       copytype="single_stretched"
       prop_scale="1"
       scale_y_rel="false"
       spacing="0"
       normal_offset="0"
       tang_offset="0"
       prop_units="false"
       vertical_pattern="false"
       hide_knot="false"
       fuse_tolerance="0" />
    <inkscape:path-effect
       effect="skeletal"
       id="path-effect853"
       is_visible="true"
       lpeversion="1"
       pattern="m -7.3256506,5.7441406 c 0,-2.76 2.24,-5.00000002 5,-5.00000002 2.76000002,0 5,2.24000002 5,5.00000002 0,2.76 -2.23999998,5.0000004 -5,5.0000004 -2.76,0 -5,-2.2400004 -5,-5.0000004 z"
       copytype="single_stretched"
       prop_scale="1"
       scale_y_rel="false"
       spacing="0"
       normal_offset="0"
       tang_offset="0"
       prop_units="false"
       vertical_pattern="false"
       hide_knot="false"
       fuse_tolerance="0" />
    <filter
       style="color-interpolation-filters:sRGB;"
       inkscape:label="Drop Shadow"
       id="filter401">
      <feFlood
         flood-opacity="0.8"
         flood-color="rgb(0,0,0)"
         result="flood"
         id="feFlood391" />
      <feComposite
         in="flood"
         in2="SourceGraphic"
         operator="in"
         result="composite1"
         id="feComposite393" />
      <feGaussianBlur
         in="composite1"
         stdDeviation="0.2"
         result="blur"
         id="feGaussianBlur395" />
      <feOffset
         dx="0"
         dy="0"
         result="offset"
         id="feOffset397" />
      <feComposite
         in="SourceGraphic"
         in2="offset"
         operator="over"
         result="composite2"
         id="feComposite399" />
    </filter>
    <filter
       inkscape:collect="always"
       style="color-interpolation-filters:sRGB"
       id="filter870"
       x="-1.5212635e-05"
       width="1.0000304"
       y="-2.6020095e-05"
       height="1.000052">
      <feGaussianBlur
         inkscape:collect="always"
         stdDeviation="0.00011760993"
         id="feGaussianBlur872" />
    </filter>
  </defs>
  <sodipodi:namedview
     id="base"
     pagecolor="#ffffff"
     bordercolor="#666666"
     borderopacity="1.0"
     inkscape:pageopacity="0.0"
     inkscape:pageshadow="2"
     inkscape:zoom="8.0000004"
     inkscape:cx="30.000877"
     inkscape:cy="17.895471"
     inkscape:document-units="mm"
     inkscape:current-layer="layer2"
     inkscape:document-rotation="0"
     showgrid="false"
     units="px"
     showguides="true"
     inkscape:guide-bbox="true"
     inkscape:window-width="1920"
     inkscape:window-height="1017"
     inkscape:window-x="-8"
     inkscape:window-y="-8"
     inkscape:window-maximized="1" />
  <metadata
     id="metadata5">
    <rdf:RDF>
      <cc:Work
         rdf:about="">
        <dc:format>image/svg+xml</dc:format>
        <dc:type
           rdf:resource="http://purl.org/dc/dcmitype/StillImage" />
        <dc:title />
      </cc:Work>
    </rdf:RDF>
  </metadata>
  <g
     inkscape:label="Background"
     inkscape:groupmode="layer"
     id="layer1"
     style="display:none">
    <rect
       style="fill:#000000;stroke-width:1.12994"
       id="rect851"
       width="12.7"
       height="12.7"
       x="0"
       y="0"
       ry="0" />
  </g>
  <g
     inkscape:groupmode="layer"
     id="layer2"
     inkscape:label="Disc"
     style="filter:url(#filter870)">
    <circle
       style="fill:#ffffff;stroke-width:0.678067"
       id="path854"
       cx="6.3499999"
       cy="6.3499999"
       r="5.4239583" />
  </g>
  <g
     inkscape:groupmode="layer"
     id="layer3"
     inkscape:label="InnerDisc">
    <circle
       style="fill:#7290df;fill-opacity:1;stroke-width:0.264583;filter:url(#filter870)"
       id="path856"
       cx="16.089624"
       cy="7.3432298"
       r="2.4555385"
       transform="matrix(1.9394342,0,0,1.9393937,-24.854768,-7.8914098)" />
  </g>
  <g
     inkscape:groupmode="layer"
     id="layer4"
     inkscape:label="Icon">
    <path
       d="m 8.1642152,3.1750024 c 0.1870909,0 0.3495663,0.064005 0.4874266,0.1920143 0.1378604,0.128011 0.2117131,0.2855651 0.2215575,0.4726568 v 0.044311 4.8890334 c 0,0.1870905 -0.064005,0.3483382 -0.1920165,0.4837333 C 8.5531741,9.3921443 8.3980837,9.4647716 8.2159117,9.4746149 l -0.051697,0.00738 H 4.5454425 c -0.1870911,0 -0.3495664,-0.064005 -0.4874267,-0.1920176 C 3.9201555,9.1619615 3.8463026,9.0044034 3.8364583,8.8173155 V 8.7730023 3.8839695 c 0,-0.1870918 0.064005,-0.3483434 0.1920164,-0.4837372 C 4.1564834,3.2648407 4.3115738,3.1922202 4.4937458,3.18237 L 4.5454428,3.175 Z m 0,0.4726561 h -3.618772 c -0.059083,0 -0.1107788,0.019709 -0.1550904,0.059083 -0.044311,0.039389 -0.071391,0.088624 -0.081238,0.1477042 v 0.029523 4.8890337 c 0,0.059084 0.019694,0.1107808 0.059083,0.1550906 0.039382,0.044313 0.086165,0.068926 0.1403199,0.073856 l 0.036924,0.00738 h 3.618772 c 0.059083,0 0.1107787,-0.01971 0.1550904,-0.059075 0.044311,-0.039393 0.071391,-0.088627 0.081238,-0.1477078 V 8.7730319 3.8839987 c 0,-0.059083 -0.019694,-0.1107809 -0.059083,-0.1550911 C 8.3020707,3.684597 8.2552948,3.6599808 8.2011395,3.6550531 Z M 6.4360668,6.646069 c 0.064005,0 0.1193973,0.022152 0.1661685,0.066469 0.046768,0.04431 0.070159,0.1009345 0.070159,0.169861 0,0.059083 -0.019694,0.1107773 -0.059083,0.1550911 -0.039389,0.04431 -0.088623,0.068927 -0.1477055,0.07385 l -0.029539,0.00737 H 5.0180999 c -0.068927,0 -0.1255493,-0.023377 -0.1698609,-0.070161 C 4.803928,7.0017811 4.78177,6.946389 4.78177,6.8823814 c 0,-0.064005 0.019694,-0.1181636 0.059083,-0.1624738 0.039389,-0.044311 0.086164,-0.068928 0.140319,-0.073855 H 5.018096 Z M 7.691559,5.7007561 c 0.068927,0 0.1255494,0.022152 0.1698609,0.066469 0.044311,0.04431 0.06647,0.1009335 0.06647,0.1698609 0,0.059083 -0.019694,0.1107809 -0.059083,0.1550911 -0.039389,0.044311 -0.086165,0.068928 -0.1403197,0.073855 l -0.036924,0.00737 h -2.673461 c -0.068927,0 -0.1255494,-0.023377 -0.169861,-0.070159 -0.044311,-0.046768 -0.066469,-0.1021601 -0.066469,-0.1661677 0,-0.064005 0.019694,-0.1181643 0.059083,-0.1624746 0.039389,-0.044311 0.086165,-0.068927 0.1403191,-0.073855 h 0.036924 z m 0,-0.9453101 c 0.068927,0 0.1255494,0.022152 0.1698609,0.066469 0.044311,0.04431 0.06647,0.1009343 0.06647,0.1698616 0,0.059083 -0.019694,0.1107773 -0.059083,0.1550875 -0.039389,0.044311 -0.086165,0.068927 -0.1403197,0.073855 l -0.036924,0.00737 h -2.673461 c -0.068927,0 -0.1255494,-0.023377 -0.169861,-0.07016 -0.044311,-0.046775 -0.066469,-0.1021608 -0.066469,-0.1661677 0,-0.059083 0.019694,-0.1107809 0.059083,-0.1550911 0.039389,-0.044311 0.086165,-0.071391 0.1403191,-0.081238 h 0.036924 z"
       fill="#ffffff"
       fill-opacity="1"
       id="path926"
       style="stroke-width:0.00738528" />
  </g>
  <g
     inkscape:groupmode="layer"
     id="layer5"
     inkscape:label="RecogSymbol">
    <path
       d="m 13.464428,4.8567355 c 0.69066,0 1.34208,0.13343 1.95426,0.40027 0.61218,0.259 1.14587,0.6161 1.60108,1.07132 0.45521,0.45521 0.81231,0.9889 1.07131,1.60108 0.26685,0.61217 0.40027,1.26359 0.40027,1.95426 0,0.6906595 -0.13342,1.3420795 -0.40027,1.9542595 -0.259,0.61218 -0.6161,1.14587 -1.07131,1.60108 -0.45521,0.45521 -0.9889,0.81231 -1.60108,1.07131 -0.61218,0.26685 -1.2636,0.40027 -1.95426,0.40027 -0.69067,0 -1.34209,-0.13342 -1.95426,-0.40027 -0.61218,-0.259 -1.14587,-0.6161 -1.60108,-1.07131 -0.45522,-0.45521 -0.81232,-0.9889 -1.07132,-1.60108 -0.26684,-0.61218 -0.40027,-1.2636 -0.40027,-1.9542595 0,-0.69067 0.13343,-1.34209 0.40027,-1.95426 0.259,-0.61218 0.6161,-1.14587 1.07132,-1.60108 0.45521,-0.45522 0.9889,-0.81232 1.60108,-1.07132 0.61217,-0.26684 1.26359,-0.40027 1.95426,-0.40027 z m 1.6364,6.2041895 -0.0236,0.0353 -0.0353,0.0353 -2.38985,2.94316 c 0.13342,0.0236 0.26685,0.0432 0.40027,0.0589 0.13342,0.0157 0.27078,0.0235 0.41205,0.0235 0.54154,0 1.05562,-0.0961 1.54221,-0.28843 0.4866,-0.19228 0.91827,-0.45717 1.295,-0.79465 l -1.04777,-2.2839 c -0.0235,0.0471 -0.0491,0.0922 -0.0765,0.13539 -0.0275,0.0432 -0.053,0.0883 -0.0765,0.13538 z m -5.40365,0.82409 c 0.23545,0.43951 0.53957,0.82997 0.91238,1.17138 0.3728,0.3414 0.79465,0.60629 1.26556,0.79465 l 1.58931,-1.95426 -0.10596,-0.0118 h -0.0589 z m 7.85236,-3.2492495 h -2.50758 c 0.0157,0.0235 0.0333,0.0491 0.053,0.0765 0.0196,0.0275 0.0373,0.053 0.053,0.0765 0.008,0.008 0.0157,0.0157 0.0235,0.0236 0.008,0.008 0.0118,0.0157 0.0118,0.0235 l 0.0236,0.0471 0.0236,0.0471 c 0.0235,0.0392 0.0451,0.0785 0.0647,0.11773 0.0196,0.0392 0.0373,0.0824 0.053,0.1295 l 1.5069,3.2963395 c 0.27469,-0.36103 0.49053,-0.7613 0.6475,-1.20081 0.15696,-0.43951 0.23545,-0.90257 0.23545,-1.3891695 0,-0.21976 -0.0157,-0.43362 -0.0471,-0.64161 -0.0314,-0.20799 -0.0785,-0.41008 -0.14127,-0.60629 z m -8.35859,1.2479 c 0,0.2197595 0.0157,0.4336195 0.0471,0.6416095 0.0314,0.20798 0.0785,0.41007 0.14128,0.60629 h 2.50757 c -0.0157,-0.0236 -0.0333,-0.0491 -0.053,-0.0765 -0.0196,-0.0275 -0.0412,-0.0569 -0.0648,-0.0883 l -0.0589,-0.10595 -1.82476,-3.3198895 c -0.21976,0.33749 -0.39046,0.70439 -0.51211,1.10074 -0.12165,0.39635 -0.18248,0.81035 -0.18248,1.24202 z m 3.28457,-0.76523 -0.0235,0.0353 c -0.008,0.008 -0.0157,0.0157 -0.0236,0.0236 -0.008,0.008 -0.0118,0.0157 -0.0118,0.0235 -0.0706,0.10204 -0.12361,0.20995 -0.15893,0.32375 -0.0353,0.11381 -0.053,0.23349 -0.053,0.35907 0,0.3217795 0.10988,0.6023695 0.32964,0.8417395 0.21976,0.23938 0.4866,0.37476 0.80054,0.40616 h 0.259 c 0.31394,-0.0314 0.58078,-0.16678 0.80054,-0.40616 0.21976,-0.23937 0.32963,-0.51996 0.32963,-0.8417395 0,-0.32964 -0.10987,-0.61218 -0.32963,-0.84763 -0.21976,-0.23546 -0.49053,-0.36888 -0.81232,-0.40027 h -0.18836 -0.0235 c -0.18837,0.008 -0.35907,0.0549 -0.51211,0.14127 -0.15305,0.0863 -0.28058,0.20013 -0.38262,0.3414 z m 0.98891,-3.50825 c -0.60433,0 -1.16942,0.11576 -1.69527,0.3473 -0.52584,0.23153 -0.98105,0.54743 -1.36562,0.9477 l 1.20081,2.20148 c 0.0314,-0.0706 0.0687,-0.14127 0.11184,-0.21191 0.0432,-0.0706 0.0883,-0.14127 0.13538,-0.2119 l 1.96604,-3.04912 c -0.0628,-0.008 -0.12362,-0.0137 -0.18248,-0.0177 -0.0589,-0.004 -0.11576,-0.006 -0.1707,-0.006 z m -0.20014,2.27213 c 0.0314,0 0.0648,-0.002 0.10007,-0.006 0.0353,-0.004 0.0687,-0.006 0.10007,-0.006 0.0235,0 0.049,0.002 0.0765,0.006 0.0275,0.004 0.053,0.006 0.0765,0.006 h 3.61421 c -0.259,-0.4866 -0.60238,-0.91042 -1.03011,-1.27145 -0.42774,-0.36103 -0.90846,-0.62787 -1.44215,-0.80054 l -0.14127,-0.0353 z"
       fill="#ffffff"
       fill-opacity="1"
       id="path947"
       style="stroke-width:0.0117726;filter:url(#filter870)"
       transform="matrix(0.14803236,0,0,0.14803236,5.4002419,6.5492562)" />
  </g>
</svg>
