<?xml version="1.0" encoding="UTF-8" standalone="no"?>
<svg
   xmlns:dc="http://purl.org/dc/elements/1.1/"
   xmlns:cc="http://creativecommons.org/ns#"
   xmlns:rdf="http://www.w3.org/1999/02/22-rdf-syntax-ns#"
   xmlns:svg="http://www.w3.org/2000/svg"
   xmlns="http://www.w3.org/2000/svg"
   xmlns:sodipodi="http://sodipodi.sourceforge.net/DTD/sodipodi-0.dtd"
   xmlns:inkscape="http://www.inkscape.org/namespaces/inkscape"
   height="100%"
   viewBox="171 85 682 854"
   width="100%"
   version="1.1"
   id="svg22"
   sodipodi:docname="formcap-icon.svg"
   inkscape:version="1.0.1 (3bc2e813f5, 2020-09-07)">
  <metadata
     id="metadata28">
    <rdf:RDF>
      <cc:Work
         rdf:about="">
        <dc:format>image/svg+xml</dc:format>
        <dc:type
           rdf:resource="http://purl.org/dc/dcmitype/StillImage" />
      </cc:Work>
    </rdf:RDF>
  </metadata>
  <defs
     id="defs26" />
  <sodipodi:namedview
     pagecolor="#ffffff"
     bordercolor="#666666"
     borderopacity="1"
     objecttolerance="10"
     gridtolerance="10"
     guidetolerance="10"
     inkscape:pageopacity="0"
     inkscape:pageshadow="2"
     inkscape:window-width="1920"
     inkscape:window-height="1017"
     id="namedview24"
     showgrid="false"
     inkscape:zoom="0.96838407"
     inkscape:cx="615.22095"
     inkscape:cy="249.33535"
     inkscape:window-x="-8"
     inkscape:window-y="-8"
     inkscape:window-maximized="1"
     inkscape:current-layer="svg22"
     showguides="true"
     inkscape:guide-bbox="true">
    <sodipodi:guide
       position="384.08125,360.38988"
       orientation="1,0"
       id="guide69" />
  </sodipodi:namedview>
  <path
     d="M235,197L235,288L235,736C235,774.667 248.5,807.5 275.5,834.5C302.5,861.5 335,875 373,875L741,875C734.333,893.667 722.833,909 706.5,921C690.167,933 671.333,939 650,939L373,939C345,939 318.667,933.667 294,923C270,912.333 248.833,897.833 230.5,879.5C212.167,861.167 197.667,839.667 187,815C176.333,790.333 171,764 171,736L171,288C171,267.333 177,248.667 189,232C201,215.333 216.333,203.667 235,197ZM560,85C572.667,85 585,87.5 597,92.5C609,97.5 619.333,104.333 628,113L825,311C834.333,319.667 841.333,329.833 846,341.5C850.667,353.167 853,365.333 853,378L853,736C853,762.667 843.667,785.333 825,804C806.333,822.667 783.667,832 757,832L373,832C347,832 324.5,822.667 305.5,804C286.5,785.333 277,762.667 277,736L277,181C277,155 286.5,132.5 305.5,113.5C324.5,94.5 347,85 373,85L560,85ZM555,149L373,149C364.333,149 356.833,152.167 350.5,158.5C344.167,164.833 341,172.333 341,181L341,736C341,744.667 344.167,752.167 350.5,758.5C356.833,764.833 364.333,768 373,768L757,768C765.667,768 773.167,764.833 779.5,758.5C785.833,752.167 789,744.667 789,736L789,384L651,384C625.667,384 603.667,375.333 585,358C566.333,340.667 556.333,319.667 555,295L555,288L555,149ZM619,195L619,288C619,296 621.667,303 627,309C632.333,315 638.667,318.667 646,320L651,320L744,320L619,195Z"
     fill="#000000"
     fill-opacity="1"
     id="path20" />
  <path
     style="fill:#e6e6e6;stroke-width:1.03265"
     d="m 195.74915,681.70315 c -9.5849,-2.27452 -17.88605,-9.15387 -22.32757,-18.50337 l -2.6981,-5.67956 V 373.02566 88.531098 l 2.46573,-4.965834 c 3.15075,-6.345393 10.06556,-13.260205 16.35956,-16.359555 l 4.92561,-2.425518 94.74547,-0.284207 94.74546,-0.284208 0.007,77.216494 c 0.007,73.56607 0.10458,77.62256 2.06641,85.80595 6.17139,25.74263 25.17895,49.22463 50.07508,61.86291 20.33303,10.32184 23.18076,10.59705 109.73029,10.60442 l 71.52232,0.006 -0.26959,179.93894 -0.26958,179.93893 -2.36819,4.43529 c -3.65006,6.83606 -9.11795,12.25998 -15.53738,15.41244 l -5.84534,2.87053 -196.71947,0.16106 C 283.784,682.55684 197.9741,682.2311 195.74892,681.70306 Z"
     id="path40"
     transform="translate(171,85)" />
  <path
     style="fill:#e6e6e6;stroke-width:1.03265"
     d="m 471.73372,233.68596 c -8.17413,-2.48646 -16.50665,-9.93467 -20.24202,-18.09378 l -2.48996,-5.43879 0.26837,-48.68111 0.26836,-48.68112 60.92296,60.92983 60.92295,60.92982 -48.53118,-0.0888 c -26.69214,-0.0488 -49.69591,-0.44306 -51.11948,-0.87609 z"
     id="path42"
     transform="translate(171,85)" />
  <path
     style="fill:#e6e6e6;fill-opacity:1;stroke-width:1.46038"
     d="m 190.90763,679.40754 c -6.69382,-3.15187 -13.71416,-10.15858 -17.3821,-17.34834 -2.81644,-5.52067 -2.86436,-10.35715 -2.86436,-289.06 0,-243.75436 0.29427,-284.014449 2.10148,-287.509211 2.18366,-4.222731 12.50237,-17.152486 12.50237,-15.665968 0,0.465795 2.13581,-0.455331 4.74625,-2.046946 4.60226,-2.806052 7.615,-2.894011 99.30618,-2.899304 l 94.55992,-0.0055 v 77.823769 c 0,89.633 -0.37115,86.28499 12.1763,109.8357 3.60962,6.77502 14.07982,18.81369 22.0841,25.39237 8.41673,6.91767 28.24978,17.51585 34.90167,18.65038 15.59019,2.65902 32.24264,3.24862 94.03596,3.32948 l 69.00319,0.0903 v 180.15375 180.15377 l -3.65097,5.37998 c -2.00803,2.959 -3.65096,5.85216 -3.65096,6.42923 0,0.57707 -1.23248,1.69795 -2.73885,2.49082 -1.50636,0.79287 -4.76858,2.59628 -7.24936,4.00759 -4.23318,2.40821 -16.75004,2.5878 -203.56495,2.92077 -184.58473,0.32898 -199.43689,0.17467 -204.31587,-2.12266 z"
     id="path63"
     transform="translate(171,85)" />
  <rect
     style="fill:#000000;fill-opacity:1;stroke-width:1.27433"
     id="rect67"
     width="313.58694"
     height="51.632408"
     x="398.20001"
     y="663.79999"
     ry="16.522369" />
  <path
     style="fill:#ffffff;fill-opacity:1;stroke-width:1.03265"
     d="m 222.9474,681.3498 -30.46312,-0.55789 -4.76345,-2.80032 c -5.78201,-3.39909 -10.38417,-8.48241 -13.82252,-15.26767 l -2.57608,-5.08365 -0.0109,-284.56284 -0.0109,-284.562848 2.14597,-4.20644 c 3.03784,-5.954658 9.85446,-13.019141 15.91889,-16.497713 l 5.18434,-2.973749 94.69834,-0.0097 94.69833,-0.0097 0.33546,80.28839 c 0.31079,74.38691 0.47382,80.70586 2.21779,85.96796 1.03528,3.12376 2.35651,6.26043 2.93606,6.97037 0.57954,0.70995 0.73196,1.29081 0.3387,1.29081 -0.39326,0 1.26576,3.71754 3.68672,8.26119 2.42095,4.54365 4.77693,8.26118 5.23549,8.26118 0.45857,0 0.83376,0.62873 0.83376,1.39719 0,3.43803 26.65138,28.54961 30.30023,28.54961 0.33413,0 2.7539,1.36121 5.37729,3.02491 6.68812,4.24148 18.11272,8.11391 27.83034,9.43323 4.90282,0.66564 37.85679,1.35075 81.06288,1.6853 l 72.80169,0.56371 -0.27523,179.65914 -0.27522,179.65913 -2.80159,4.78055 c -3.81573,6.51105 -9.15667,11.64132 -15.27919,14.67653 l -5.11967,2.53805 -169.87062,0.0416 c -93.42884,0.0228 -183.57902,-0.20948 -200.33373,-0.51633 z m 309.40054,-52.31762 c 7.07008,-3.35497 8.09845,-6.22494 8.4659,-23.62669 0.3119,-14.77124 0.21531,-15.661 -2.07364,-19.10399 -1.32042,-1.98614 -4.47042,-4.65672 -6.99999,-5.93462 l -4.59923,-2.32346 H 384.0405 240.94003 l -4.59923,2.32346 c -2.52957,1.2779 -5.64853,3.90242 -6.93102,5.83227 -2.14529,3.22818 -2.33137,4.67356 -2.3265,18.07134 0.005,13.48104 0.18667,14.86217 2.44759,18.59729 1.34326,2.21912 4.01286,4.87162 5.93243,5.89445 3.31268,1.76512 10.8593,1.86187 148.42114,1.90295 131.63706,0.0394 145.25502,-0.11047 148.4635,-1.633 z"
     id="path71"
     transform="translate(171,85)" />
  <path
     style="fill:#ffffff;fill-opacity:1;stroke-width:1.03265"
     d="m 466.02862,230.53614 c -6.18287,-3.96879 -10.94611,-9.26826 -14.32671,-15.93956 l -2.55482,-5.04171 0.74961,-47.59073 0.74961,-47.59073 59.89359,59.95862 59.89359,59.95863 -49.67452,-0.25458 -49.67452,-0.25459 z"
     id="path73"
     transform="translate(171,85)" />
  <rect
     style="fill:#000000;fill-opacity:1;stroke-width:1.27433"
     id="rect67-3"
     width="313.58694"
     height="51.632408"
     x="398.20001"
     y="563.79999"
     ry="16.522369" />
  <rect
     style="fill:#000000;fill-opacity:1;stroke-width:1.27433"
     id="rect67-3-3"
     width="313.58694"
     height="51.632408"
     x="398.20001"
     y="463.79999"
     ry="16.522369" />
</svg>
