<?xml version="1.0" encoding="UTF-8" standalone="no"?>
<svg
   xmlns:dc="http://purl.org/dc/elements/1.1/"
   xmlns:cc="http://creativecommons.org/ns#"
   xmlns:rdf="http://www.w3.org/1999/02/22-rdf-syntax-ns#"
   xmlns:svg="http://www.w3.org/2000/svg"
   xmlns="http://www.w3.org/2000/svg"
   xmlns:sodipodi="http://sodipodi.sourceforge.net/DTD/sodipodi-0.dtd"
   xmlns:inkscape="http://www.inkscape.org/namespaces/inkscape"
   width="48"
   height="48"
   viewBox="0 0 12.7 12.7"
   version="1.1"
   id="svg8"
   inkscape:version="1.0.1 (3bc2e813f5, 2020-09-07)"
   sodipodi:docname="formcapture-icon.svg">
  <defs
     id="defs2">
    <filter
       style="color-interpolation-filters:sRGB;"
       inkscape:label="Drop Shadow"
       id="filter401">
      <feFlood
         flood-opacity="0.8"
         flood-color="rgb(0,0,0)"
         result="flood"
         id="feFlood391" />
      <feComposite
         in="flood"
         in2="SourceGraphic"
         operator="in"
         result="composite1"
         id="feComposite393" />
      <feGaussianBlur
         in="composite1"
         stdDeviation="0.2"
         result="blur"
         id="feGaussianBlur395" />
      <feOffset
         dx="0"
         dy="0"
         result="offset"
         id="feOffset397" />
      <feComposite
         in="SourceGraphic"
         in2="offset"
         operator="over"
         result="composite2"
         id="feComposite399" />
    </filter>
  </defs>
  <sodipodi:namedview
     id="base"
     pagecolor="#ffffff"
     bordercolor="#666666"
     borderopacity="1.0"
     inkscape:pageopacity="0.0"
     inkscape:pageshadow="2"
     inkscape:zoom="11.313709"
     inkscape:cx="9.4835146"
     inkscape:cy="33.576458"
     inkscape:document-units="mm"
     inkscape:current-layer="g85"
     inkscape:document-rotation="0"
     showgrid="false"
     units="px"
     showguides="true"
     inkscape:guide-bbox="true"
     inkscape:window-width="1920"
     inkscape:window-height="1017"
     inkscape:window-x="-8"
     inkscape:window-y="-8"
     inkscape:window-maximized="1" />
  <metadata
     id="metadata5">
    <rdf:RDF>
      <cc:Work
         rdf:about="">
        <dc:format>image/svg+xml</dc:format>
        <dc:type
           rdf:resource="http://purl.org/dc/dcmitype/StillImage" />
        <dc:title></dc:title>
      </cc:Work>
    </rdf:RDF>
  </metadata>
  <g
     inkscape:label="Layer 1"
     inkscape:groupmode="layer"
     id="layer1">
    <ellipse
       style="fill:#000000;stroke-width:0.434788;filter:url(#filter401)"
       id="path14"
       cx="6.355051"
       cy="6.4147372"
       rx="6.0810509"
       ry="6.0697374" />
    <ellipse
       style="fill:#ffffff;stroke-width:0.388805"
       id="path14-9"
       cx="6.3549337"
       cy="6.4148159"
       rx="5.4379334"
       ry="5.4278164" />
    <g
       id="g85"
       transform="matrix(0.01006433,0,0,0.01006433,1.3944262,1.2275185)">
      <path
         d="m 235,197 v 91 448 c 0,38.667 13.5,71.5 40.5,98.5 27,27 59.5,40.5 97.5,40.5 h 368 c -6.667,18.667 -18.167,34 -34.5,46 -16.333,12 -35.167,18 -56.5,18 H 373 c -28,0 -54.333,-5.333 -79,-16 C 270,912.333 248.833,897.833 230.5,879.5 212.167,861.167 197.667,839.667 187,815 176.333,790.333 171,764 171,736 V 288 c 0,-20.667 6,-39.333 18,-56 12,-16.667 27.333,-28.333 46,-35 z M 560,85 c 12.667,0 25,2.5 37,7.5 12,5 22.333,11.833 31,20.5 l 197,198 c 9.333,8.667 16.333,18.833 21,30.5 4.667,11.667 7,23.833 7,36.5 v 358 c 0,26.667 -9.333,49.333 -28,68 -18.667,18.667 -41.333,28 -68,28 H 373 c -26,0 -48.5,-9.333 -67.5,-28 C 286.5,785.333 277,762.667 277,736 V 181 c 0,-26 9.5,-48.5 28.5,-67.5 C 324.5,94.5 347,85 373,85 Z m -5,64 H 373 c -8.667,0 -16.167,3.167 -22.5,9.5 -6.333,6.333 -9.5,13.833 -9.5,22.5 v 555 c 0,8.667 3.167,16.167 9.5,22.5 6.333,6.333 13.833,9.5 22.5,9.5 h 384 c 8.667,0 16.167,-3.167 22.5,-9.5 6.333,-6.333 9.5,-13.833 9.5,-22.5 V 384 H 651 c -25.333,0 -47.333,-8.667 -66,-26 -18.667,-17.333 -28.667,-38.333 -30,-63 v -7 z m 64,46 v 93 c 0,8 2.667,15 8,21 5.333,6 11.667,9.667 19,11 h 5 93 z"
         fill="#000000"
         fill-opacity="1"
         id="path20" />
      <path
         style="fill:#e6e6e6;stroke-width:1.03265"
         d="m 195.74915,681.70315 c -9.5849,-2.27452 -17.88605,-9.15387 -22.32757,-18.50337 l -2.6981,-5.67956 V 373.02566 88.531098 l 2.46573,-4.965834 c 3.15075,-6.345393 10.06556,-13.260205 16.35956,-16.359555 l 4.92561,-2.425518 94.74547,-0.284207 94.74546,-0.284208 0.007,77.216494 c 0.007,73.56607 0.10458,77.62256 2.06641,85.80595 6.17139,25.74263 25.17895,49.22463 50.07508,61.86291 20.33303,10.32184 23.18076,10.59705 109.73029,10.60442 l 71.52232,0.006 -0.26959,179.93894 -0.26958,179.93893 -2.36819,4.43529 c -3.65006,6.83606 -9.11795,12.25998 -15.53738,15.41244 l -5.84534,2.87053 -196.71947,0.16106 C 283.784,682.55684 197.9741,682.2311 195.74892,681.70306 Z"
         id="path40"
         transform="translate(171,85)" />
      <path
         style="fill:#ffffff;stroke-width:1.03265"
         d="m 471.73372,233.68596 c -8.17413,-2.48646 -16.50665,-9.93467 -20.24202,-18.09378 l -2.48996,-5.43879 0.26837,-48.68111 0.26836,-48.68112 60.92296,60.92983 60.92295,60.92982 -48.53118,-0.0888 c -26.69214,-0.0488 -49.69591,-0.44306 -51.11948,-0.87609 z"
         id="path42"
         transform="translate(171,85)" />
      <path
         style="fill:#e6e6e6;fill-opacity:1;stroke-width:1.46038"
         d="m 190.90763,679.40754 c -6.69382,-3.15187 -13.71416,-10.15858 -17.3821,-17.34834 -2.81644,-5.52067 -2.86436,-10.35715 -2.86436,-289.06 0,-243.75436 0.29427,-284.014449 2.10148,-287.509211 2.18366,-4.222731 12.50237,-17.152486 12.50237,-15.665968 0,0.465795 2.13581,-0.455331 4.74625,-2.046946 4.60226,-2.806052 7.615,-2.894011 99.30618,-2.899304 l 94.55992,-0.0055 v 77.823769 c 0,89.633 -0.37115,86.28499 12.1763,109.8357 3.60962,6.77502 14.07982,18.81369 22.0841,25.39237 8.41673,6.91767 28.24978,17.51585 34.90167,18.65038 15.59019,2.65902 32.24264,3.24862 94.03596,3.32948 l 69.00319,0.0903 v 180.15375 180.15377 l -3.65097,5.37998 c -2.00803,2.959 -3.65096,5.85216 -3.65096,6.42923 0,0.57707 -1.23248,1.69795 -2.73885,2.49082 -1.50636,0.79287 -4.76858,2.59628 -7.24936,4.00759 -4.23318,2.40821 -16.75004,2.5878 -203.56495,2.92077 -184.58473,0.32898 -199.43689,0.17467 -204.31587,-2.12266 z"
         id="path63"
         transform="translate(171,85)" />
      <rect
         style="fill:#000000;fill-opacity:1;stroke-width:1.27433"
         id="rect67"
         width="313.58694"
         height="51.632408"
         x="398.20001"
         y="663.79999"
         ry="16.522369" />
      <path
         style="fill:#ffffff;fill-opacity:1;stroke-width:1.03265"
         d="m 222.9474,681.3498 -30.46312,-0.55789 -4.76345,-2.80032 c -5.78201,-3.39909 -10.38417,-8.48241 -13.82252,-15.26767 l -2.57608,-5.08365 -0.0109,-284.56284 -0.0109,-284.562848 2.14597,-4.20644 c 3.03784,-5.954658 9.85446,-13.019141 15.91889,-16.497713 l 5.18434,-2.973749 94.69834,-0.0097 94.69833,-0.0097 0.33546,80.28839 c 0.31079,74.38691 0.47382,80.70586 2.21779,85.96796 1.03528,3.12376 2.35651,6.26043 2.93606,6.97037 0.57954,0.70995 0.73196,1.29081 0.3387,1.29081 -0.39326,0 1.26576,3.71754 3.68672,8.26119 2.42095,4.54365 4.77693,8.26118 5.23549,8.26118 0.45857,0 0.83376,0.62873 0.83376,1.39719 0,3.43803 26.65138,28.54961 30.30023,28.54961 0.33413,0 2.7539,1.36121 5.37729,3.02491 6.68812,4.24148 18.11272,8.11391 27.83034,9.43323 4.90282,0.66564 37.85679,1.35075 81.06288,1.6853 l 72.80169,0.56371 -0.27523,179.65914 -0.27522,179.65913 -2.80159,4.78055 c -3.81573,6.51105 -9.15667,11.64132 -15.27919,14.67653 l -5.11967,2.53805 -169.87062,0.0416 c -93.42884,0.0228 -183.57902,-0.20948 -200.33373,-0.51633 z m 309.40054,-52.31762 c 7.07008,-3.35497 8.09845,-6.22494 8.4659,-23.62669 0.3119,-14.77124 0.21531,-15.661 -2.07364,-19.10399 -1.32042,-1.98614 -4.47042,-4.65672 -6.99999,-5.93462 l -4.59923,-2.32346 H 384.0405 240.94003 l -4.59923,2.32346 c -2.52957,1.2779 -5.64853,3.90242 -6.93102,5.83227 -2.14529,3.22818 -2.33137,4.67356 -2.3265,18.07134 0.005,13.48104 0.18667,14.86217 2.44759,18.59729 1.34326,2.21912 4.01286,4.87162 5.93243,5.89445 3.31268,1.76512 10.8593,1.86187 148.42114,1.90295 131.63706,0.0394 145.25502,-0.11047 148.4635,-1.633 z"
         id="path71"
         transform="translate(171,85)" />
      <path
         style="fill:#ffffff;fill-opacity:1;stroke-width:1.03265"
         d="m 470.54708,233.92498 c -7.14188,-1.72417 -18.31646,-11.47459 -20.28286,-19.84186 l -2.24674,-9.56017 -0.0719,-42.55881 L 448,110 512.79913,174.64011 573,235 521.88858,234.96031 475,235 Z"
         id="path73"
         transform="translate(171,85)"
         sodipodi:nodetypes="sscccccccs" />
      <rect
         style="fill:#000000;fill-opacity:1;stroke-width:1.27433"
         id="rect67-3"
         width="313.58694"
         height="51.632408"
         x="398.20001"
         y="563.79999"
         ry="16.522369" />
      <rect
         style="fill:#000000;fill-opacity:1;stroke-width:1.27433"
         id="rect67-3-3"
         width="313.58694"
         height="51.632408"
         x="398.20001"
         y="463.79999"
         ry="16.522369" />
    </g>
    <path
       style="fill:#e6e6e6;stroke-width:0.0441942"
       d="M 22.840973,44.705125 C 16.358666,44.300969 10.515522,40.953746 6.9518957,35.603127 6.0341583,34.225187 5.3248021,32.843953 4.7701675,31.354939 3.0171998,26.648791 3.0731193,21.396743 4.9258582,16.732215 7.3115948,10.725792 12.366689,6.1960167 18.589005,4.4889243 c 1.827099,-0.5012646 3.477841,-0.7205431 5.419964,-0.7199681 1.226183,3.629e-4 1.847605,0.04189 2.906578,0.1942346 4.304537,0.6192528 8.276911,2.5641597 11.359567,5.5617376 3.559076,3.4608486 5.633277,7.7400466 6.181918,12.7536556 0.07747,0.707953 0.07747,3.225328 0,3.933281 -0.379601,3.468884 -1.446416,6.470784 -3.310273,9.314741 -1.139182,1.738217 -2.738876,3.474988 -4.431965,4.811736 -3.087087,2.437356 -6.95384,3.96819 -10.915961,4.32159 -0.758567,0.06766 -2.235555,0.09023 -2.95786,0.04519 z m 8.152383,-4.448747 c 0.451377,-0.139858 0.70553,-0.25662 1.033529,-0.474817 0.349814,-0.23271 0.846999,-0.727259 1.054734,-1.049143 0.13552,-0.209987 0.407001,-0.74903 0.407001,-0.808126 0,-0.01269 -3.246615,-0.02346 -7.214699,-0.02394 -4.545102,-5.53e-4 -7.329169,-0.01715 -7.524058,-0.04486 -1.165951,-0.165768 -2.130132,-0.651134 -2.97823,-1.499232 -0.739603,-0.739603 -1.209418,-1.603221 -1.453716,-2.672232 -0.06453,-0.282395 -0.07283,-1.341836 -0.08559,-10.930355 -0.01219,-9.158019 -0.02279,-10.61765 -0.07716,-10.61765 -0.119545,0 -0.729886,0.345293 -1.023954,0.579289 -0.577507,0.459537 -1.081312,1.247822 -1.282108,2.00607 -0.07851,0.296474 -0.08192,0.691313 -0.08192,9.47965 0,7.373006 0.01143,9.243915 0.0583,9.545942 0.539977,3.479585 3.301128,6.181044 6.72551,6.580115 0.182301,0.02125 2.986421,0.03571 6.231378,0.03215 l 5.899923,-0.0065 z m 3.660067,-3.9917 c 0.773086,-0.111761 1.403789,-0.437703 1.999093,-1.033115 0.602307,-0.602417 0.910984,-1.193452 1.033319,-1.978536 0.03669,-0.235486 0.04668,-2.309986 0.03666,-7.615686 -0.01258,-6.662329 -0.02015,-7.313085 -0.08762,-7.535758 C 37.486446,17.611748 37.364558,17.338059 37.163407,17.042939 36.925466,16.693843 29.257412,8.9422751 28.826428,8.6151604 28.337281,8.2439002 27.706264,7.9814509 27.090406,7.8931222 26.854048,7.859223 25.525226,7.8489265 22.771533,7.859657 c -4.450448,0.017342 -4.138842,-0.00478 -4.869067,0.3457386 -0.642227,0.3082813 -1.256129,0.8750919 -1.643619,1.5175382 -0.220928,0.3662902 -0.395535,0.9189952 -0.449038,1.4213942 -0.03196,0.300137 -0.04267,3.861692 -0.0338,11.244741 l 0.01298,10.805476 0.100384,0.353553 c 0.404276,1.423853 1.555542,2.479325 2.963508,2.716919 0.31186,0.05263 15.436417,0.0523 15.80055,-3.54e-4 z"
       id="path101"
       transform="scale(0.26458333)" />
  </g>
</svg>
